<?xml version="1.0" standalone="no"?>
<!DOCTYPE svg PUBLIC "-//W3C//DTD SVG 1.1//EN" "http://www.w3.org/Graphics/SVG/1.1/DTD/svg11.dtd" >
<svg xmlns="http://www.w3.org/2000/svg">
<metadata>
This is a custom SVG webfont generated by Fontspring.
</metadata>
<defs>
<font id="KenyanCoffeeBold" horiz-adv-x="821" >
<font-face units-per-em="2048" ascent="1735" descent="-313" />
<missing-glyph horiz-adv-x="364" />
<glyph unicode=" "  horiz-adv-x="364" />
<glyph unicode="&#x09;" horiz-adv-x="364" />
<glyph unicode="&#xa0;" horiz-adv-x="364" />
<glyph unicode="!" horiz-adv-x="446" d="M55 1618h334l-51 -1231h-229zM371 289v-289h-297v289h297z" />
<glyph unicode="&#x22;" horiz-adv-x="712" d="M55 1618h252l-43 -582h-168zM412 1618h252l-43 -582h-168z" />
<glyph unicode="#" horiz-adv-x="964" d="M459 0l55 420h-162l-55 -420h-199l52 420h-113l37 285h112l25 204h-131l35 283h133l55 426h201l-55 -426h163l54 426h200l-53 -426h113l-37 -283h-113l-24 -204h131l-33 -285h-135l-56 -420h-200zM414 909l-27 -204h162l26 204h-161z" />
<glyph unicode="$" horiz-adv-x="872" d="M565 1759v-125q141 -12 188.5 -79.5t47.5 -256.5v-204h-326v204q0 27 -7 36t-31.5 9t-32 -9t-7.5 -36v-165q0 -39 14.5 -59.5t63.5 -49.5q109 -61 159 -95t94 -69t56.5 -73.5t18.5 -80.5t6 -122v-262q0 -190 -48 -258t-196 -80v-125h-256v125q-139 12 -187 80.5 t-48 257.5v321h323v-321q0 -27 7.5 -36.5t32 -9.5t31.5 9.5t7 36.5v290q0 29 -12 47.5t-47 36.5l-140 79q-45 26 -93 62.5t-64.5 58.5t-32.5 61.5t-18 77.5t-2 104v159q0 190 48 257t195 79v125h256z" />
<glyph unicode="%" horiz-adv-x="1601" d="M567 1438v-531q0 -127 -44 -160.5t-201 -33.5q-154 0 -198 33.5t-44 160.5v531q0 125 44 158.5t198 33.5q158 0 201.5 -33.5t43.5 -158.5zM301 1438v-531q0 -16 21 -16q25 0 24 16v531q0 16 -24 16q-21 0 -21 -16zM1040 1618h222l-701 -1618h-219zM1520 713v-531 q0 -127 -44 -160.5t-202 -33.5q-154 0 -198 33.5t-44 160.5v531q0 125 44 158.5t198 33.5q158 0 202 -33.5t44 -158.5zM1253 713v-531q0 -16 21 -16q25 0 24 16v531q0 16 -24 16q-21 0 -21 -16z" />
<glyph unicode="&#x26;" horiz-adv-x="868" d="M475 1069v193h307v-193h72v-260h-72v-809h-346q-233 0 -301.5 59.5t-68.5 272.5v327q0 141 35.5 201t103.5 78v8q-139 27 -139 221v121q0 213 68.5 271.5t301.5 58.5h39v-285h-39q-25 0 -32 -9t-7 -36v-176q0 -27 7.5 -35t31.5 -8h39zM475 287v522h-39q-25 0 -32 -9 t-7 -36v-432q0 -27 7.5 -36t31.5 -9h39z" />
<glyph unicode="'" horiz-adv-x="362" d="M55 1618h252l-43 -582h-168z" />
<glyph unicode="(" horiz-adv-x="542" d="M356 1513v-1523q0 -98 19.5 -130t85.5 -32h41v-207h-41q-201 0 -269.5 80t-68.5 289v1523q0 209 68.5 289t269.5 80h41v-207h-41q-66 0 -85.5 -32t-19.5 -130z" />
<glyph unicode=")" horiz-adv-x="542" d="M186 -10v1523q0 98 -19.5 130t-84.5 32h-41v207h41q201 0 269.5 -80t68.5 -289v-1523q0 -209 -68.5 -289t-269.5 -80h-41v207h41q66 0 85 32t19 130z" />
<glyph unicode="*" horiz-adv-x="917" d="M801 1087l37 -133l-127 -34l-189 149l29 -244l-92 -100l-92 100l30 244l-188 -149l-127 34l37 133l217 95l-217 98l-37 131l127 35l188 -152l-30 248l92 96l92 -96l-29 -248l189 152l127 -35l-37 -131l-217 -98z" />
<glyph unicode="+" horiz-adv-x="1083" d="M670 358h-258v332h-330v258h330v330h258v-330h331v-258h-331v-332z" />
<glyph unicode="," horiz-adv-x="460" d="M379 289v-281q0 -127 -61.5 -190.5t-211.5 -63.5h-24v131h37q88 0 88 105v10h-125v289h297z" />
<glyph unicode="-" horiz-adv-x="436" d="M401 811v-258h-366v258h366z" />
<glyph unicode="." horiz-adv-x="460" d="M379 289v-289h-297v289h297z" />
<glyph unicode="/" horiz-adv-x="612" d="M371 1769h241l-372 -1916h-240z" />
<glyph unicode="0" horiz-adv-x="872" d="M809 1298v-976q0 -117 -13.5 -181.5t-59.5 -102.5t-111.5 -48t-188.5 -10q-236 0 -303 60t-67 282v976q0 221 67.5 280.5t303 59.5t304 -59.5t68.5 -280.5zM397 1298v-976q0 -27 7.5 -36.5t32 -9.5t31.5 9.5t7 36.5v976q0 27 -7 36t-31.5 9t-32 -9t-7.5 -36z" />
<glyph unicode="1" horiz-adv-x="563" d="M29 1333v285h452v-1618h-334v1333h-118z" />
<glyph unicode="2" horiz-adv-x="901" d="M242 928l184 108q63 35 63 97v165q0 27 -7 36t-31.5 9t-31.5 -9t-7 -36v-200h-324v200q0 117 13.5 180.5t57.5 101.5t109.5 48t188.5 10q233 0 299.5 -59t66.5 -281v-182q0 -137 -31.5 -197.5t-134.5 -117.5l-206 -119q-39 -20 -39 -70v-315h75v330h336v-627h-745v604 q0 152 30 207.5t134 116.5z" />
<glyph unicode="3" horiz-adv-x="854" d="M647 883v-9q68 -16 104.5 -75.5t36.5 -200.5v-287q0 -213 -69.5 -272t-302.5 -59q-117 0 -179.5 10t-106.5 48t-57.5 102.5t-13.5 181.5v309h318v-309q0 -27 7 -36.5t31.5 -9.5t32 9.5t7.5 36.5v360q0 27 -7.5 36t-31.5 9h-148v301h148q25 0 32 9.5t7 35.5v225 q0 27 -7.5 36t-32 9t-31.5 -9t-7 -36v-188h-318v188q0 117 13.5 180.5t57.5 101.5t106.5 48t179.5 10q233 0 302.5 -59t69.5 -270v-205q0 -194 -141 -221z" />
<glyph unicode="4" horiz-adv-x="919" d="M793 717h86v-283h-86v-434h-340v434h-381l6 1194h303l-6 -911h78v655h340v-655z" />
<glyph unicode="5" horiz-adv-x="878" d="M807 584v-262q0 -117 -13.5 -181.5t-59.5 -102.5t-111.5 -48t-188.5 -10q-117 0 -179 10t-106.5 48t-57.5 102.5t-13 181.5v288h317v-288q0 -27 7.5 -36.5t32 -9.5t31.5 9.5t7 36.5v323q0 63 -19.5 88t-74.5 25h-301l8 860h721v-543h-334v297h-78v-375h131 q156 0 218.5 -88.5t62.5 -324.5z" />
<glyph unicode="6" horiz-adv-x="872" d="M809 616v-294q0 -117 -13.5 -181.5t-59.5 -102.5t-111.5 -48t-188.5 -10q-236 0 -303 60t-67 282v976q0 221 67.5 280.5t302.5 59.5q117 0 180.5 -10t107.5 -48t57.5 -102.5t13.5 -179.5v-161h-320v161q0 27 -7 36t-31.5 9t-32 -9t-7.5 -36v-405q37 66 176 65 q143 0 189.5 -71.5t46.5 -270.5zM397 657v-335q0 -27 7.5 -36.5t32 -9.5t31.5 9.5t7 36.5v335q0 27 -7 36t-31.5 9t-32 -9t-7.5 -36z" />
<glyph unicode="7" horiz-adv-x="720" d="M668 1618v-268l-273 -1350h-344l275 1343h-279v275h621z" />
<glyph unicode="8" horiz-adv-x="876" d="M207 874v9q-141 27 -141 221v205q0 211 69.5 270t303 59t303 -59t69.5 -270v-205q0 -195 -141 -221v-9q68 -16 104.5 -75.5t36.5 -200.5v-287q0 -213 -69.5 -272t-303 -59t-303 59t-69.5 272v287q0 141 36.5 200.5t104.5 75.5zM477 702q0 27 -7 36.5t-31.5 9.5t-32 -9.5 t-7.5 -36.5v-380q0 -27 7.5 -36.5t32 -9.5t31.5 9.5t7 36.5v380zM477 1298q0 27 -7 36t-31.5 9t-32 -9t-7.5 -36v-245q0 -27 7.5 -36t32 -9t31.5 9t7 36v245z" />
<glyph unicode="9" horiz-adv-x="872" d="M66 954v344q0 221 67.5 280.5t303 59.5t304 -59t68.5 -281v-976q0 -117 -13.5 -181.5t-59.5 -102.5t-111.5 -48t-188.5 -10q-117 0 -179 10t-106.5 48t-57.5 102.5t-13 181.5v122h317v-122q0 -27 7.5 -36.5t32 -9.5t31.5 9.5t7 36.5v356q-37 -66 -174 -66 q-141 0 -188 72.5t-47 269.5zM475 913v385q0 27 -7 36t-31.5 9t-32 -9t-7.5 -36v-385q0 -27 7.5 -36t32 -9t31.5 9t7 36z" />
<glyph unicode=":" horiz-adv-x="460" d="M379 289v-289h-297v289h297zM379 1102v-289h-297v289h297z" />
<glyph unicode=";" horiz-adv-x="460" d="M379 289v-281q0 -127 -61.5 -190.5t-211.5 -63.5h-24v131h37q88 0 88 105v10h-125v289h297zM379 1102v-289h-297v289h297z" />
<glyph unicode="&#x3c;" horiz-adv-x="1083" d="M1001 1016l-614 -197l614 -196v-256l-919 315v274l919 318v-258z" />
<glyph unicode="=" horiz-adv-x="1083" d="M1001 467h-919v258h919v-258zM1001 913h-919v258h919v-258z" />
<glyph unicode="&#x3e;" horiz-adv-x="1083" d="M696 819l-614 197v258l919 -318v-274l-919 -315v256z" />
<glyph unicode="?" horiz-adv-x="841" d="M375 1094h-324v204q0 219 67.5 279.5t295.5 60.5q236 0 304 -59t68 -281v-163q0 -92 -14 -143.5t-59 -125.5l-150 -248q-27 -41 -26 -98v-133h-281v172q0 98 13.5 153.5t54.5 121.5l100 155q29 41 29 101v208q0 27 -7.5 36t-32 9t-31.5 -9t-7 -36v-204zM551 289v-289 h-299v289h299z" />
<glyph unicode="@" horiz-adv-x="921" d="M270 1106v-1045q0 -63 35 -83.5t162 -20.5q125 0 157.5 19.5t32.5 84.5v66h199v-33q0 -117 -14.5 -181.5t-62.5 -102t-117.5 -48t-200.5 -10.5t-201 10.5t-118 48t-62 102t-14 181.5v977q0 221 72.5 280.5t322.5 59.5t322.5 -59.5t72.5 -280.5v-799h-184v37 q-31 -45 -129 -45q-92 0 -121 35t-29 135v324q0 100 29 135t119 35q96 0 116 -45v223q0 63 -32.5 83.5t-157.5 20.5t-161 -20.5t-36 -83.5zM582 711v-242q0 -27 6 -36t30 -9q27 0 39 29v274q-12 29 -39 29q-25 0 -30.5 -9t-5.5 -36z" />
<glyph unicode="A" horiz-adv-x="870" d="M434 1638q229 0 299 -60t70 -280v-1298h-334v322h-78v-322h-321v1298q0 117 13 180.5t58 101.5t109.5 48t183.5 10zM391 1298v-704h78v704q0 27 -7 36t-31.5 9t-32 -9t-7.5 -36z" />
<glyph unicode="B" horiz-adv-x="884" d="M684 946v-8q68 -18 104.5 -77.5t36.5 -201.5v-327q0 -213 -69.5 -272.5t-302.5 -59.5h-371v1618h371q236 0 304 -58.5t68 -271.5v-121q0 -194 -141 -221zM414 809v-522h39q25 0 32 9t7 36v432q0 27 -7.5 36t-31.5 9h-39zM414 1333v-264h39q25 0 32 8t7 35v176 q0 27 -7.5 36t-31.5 9h-39z" />
<glyph unicode="C" horiz-adv-x="858" d="M397 1298v-976q0 -27 7.5 -36.5t32 -9.5t31.5 9.5t7 36.5v374h320v-374q0 -117 -13.5 -181.5t-57.5 -102.5t-107.5 -48t-180.5 -10q-236 0 -303 60t-67 282v976q0 221 67.5 280.5t302.5 59.5q117 0 180.5 -10t107.5 -48t57.5 -102.5t13.5 -179.5v-366h-320v366 q0 27 -7 36t-31.5 9t-32 -9t-7.5 -36z" />
<glyph unicode="D" horiz-adv-x="888" d="M825 1288v-956q0 -213 -69.5 -272.5t-302.5 -59.5h-371v1618h371q236 0 304 -58.5t68 -271.5zM414 1333v-1046h39q25 0 32 9t7 36v956q0 27 -7.5 36t-31.5 9h-39z" />
<glyph unicode="E" horiz-adv-x="630" d="M592 285v-285h-510v1618h508v-272h-176v-119h168v-262h-168v-680h178z" />
<glyph unicode="F" horiz-adv-x="618" d="M414 0h-332v1618h518v-272h-186v-119h178v-273h-178v-954z" />
<glyph unicode="G" horiz-adv-x="866" d="M397 1298v-976q0 -27 7.5 -36.5t31.5 -9.5q33 0 45 5v659h314v-940q-106 -20 -359 -20q-229 0 -299.5 65.5t-70.5 276.5v976q0 221 67.5 280.5t302.5 59.5q117 0 180.5 -10t107.5 -48t57.5 -102.5t13.5 -179.5v-147h-320v147q0 27 -7 36t-31.5 9t-32 -9t-7.5 -36z" />
<glyph unicode="H" horiz-adv-x="909" d="M829 1618v-1618h-333v844h-82v-844h-332v1618h332v-496h82v496h333z" />
<glyph unicode="I" horiz-adv-x="503" d="M418 1618v-1618h-332v1618h332z" />
<glyph unicode="J" horiz-adv-x="813" d="M397 322v1296h334v-1296q0 -221 -66.5 -281.5t-295.5 -60.5q-115 0 -175.5 10t-103.5 48t-56.5 102.5t-13.5 181.5v374h302v-374q0 -27 7 -36.5t31.5 -9.5t30.5 9.5t6 36.5z" />
<glyph unicode="K" horiz-adv-x="890" d="M883 0h-342q-57 336 -113 799h-10v-799h-336v1618h336v-569h10q29 254 86 569h334q-117 -582 -139 -672q39 -170 174 -946z" />
<glyph unicode="L" horiz-adv-x="624" d="M606 287v-287h-524v1618h332v-1331h192z" />
<glyph unicode="M" horiz-adv-x="1173" d="M1094 1618v-1618h-260v993h-9l-100 -993h-272l-103 1004h-8v-1004h-260v1618h438q45 -522 64 -881h8q25 449 63 881h439z" />
<glyph unicode="N" horiz-adv-x="942" d="M860 1618v-1618h-344l-151 780h-9v-780h-274v1618h356l137 -819h9v819h276z" />
<glyph unicode="O" horiz-adv-x="872" d="M809 1298v-976q0 -117 -13.5 -181.5t-59.5 -102.5t-111.5 -48t-188.5 -10q-236 0 -303 60t-67 282v976q0 221 67.5 280.5t303 59.5t304 -59.5t68.5 -280.5zM397 1298v-976q0 -27 7.5 -36.5t32 -9.5t31.5 9.5t7 36.5v976q0 27 -7 36t-31.5 9t-32 -9t-7.5 -36z" />
<glyph unicode="P" horiz-adv-x="864" d="M453 1618q236 0 304 -58.5t68 -271.5v-346q0 -213 -68.5 -271.5t-303.5 -58.5h-39v-612h-332v1618h371zM414 1333v-452h39q25 0 32 9t7 36v362q0 27 -7.5 36t-31.5 9h-39z" />
<glyph unicode="Q" horiz-adv-x="872" d="M524 -156l-88 174q-100 0 -157.5 6.5t-104.5 21.5t-67.5 51t-30.5 87.5t-10 137.5v976q0 221 67.5 280.5t303 59.5t304 -59t68.5 -281v-976q0 -129 -25.5 -192.5t-93.5 -88.5l119 -197h-285zM397 1298v-976q0 -27 7.5 -36.5t32 -9.5t31.5 9.5t7 36.5v976q0 27 -7 36 t-31.5 9t-32 -9t-7.5 -36z" />
<glyph unicode="R" horiz-adv-x="892" d="M414 762v-762h-332v1618h371q236 0 304 -58.5t68 -271.5v-168q0 -195 -141 -221v-8q70 -18 105.5 -76.5t35.5 -202.5v-612h-333v717q0 27 -7.5 36t-31.5 9h-39zM414 1333v-311h39q25 0 32 9t7 36v221q0 27 -7.5 36t-31.5 9h-39z" />
<glyph unicode="S" horiz-adv-x="864" d="M393 1298v-165q0 -39 14.5 -59.5t63.5 -49.5q109 -61 159 -95t94 -69t56.5 -73.5t18.5 -80.5t6 -122v-262q0 -117 -13.5 -181.5t-59.5 -102.5t-111.5 -48t-188.5 -10q-225 0 -293.5 60t-68.5 282v321h323v-321q0 -27 7.5 -36.5t32 -9.5t31.5 9.5t7 36.5v290 q0 29 -12.5 47.5t-46.5 36.5q-96 53 -140.5 80t-93.5 62.5t-64.5 57.5t-31.5 61.5t-18.5 77.5t-2.5 104v159q0 221 68 280.5t303 59.5q119 0 183.5 -10t109.5 -48t58.5 -101.5t13.5 -180.5v-204h-326v204q0 27 -7 36t-31.5 9t-32 -9t-7.5 -36z" />
<glyph unicode="T" horiz-adv-x="681" d="M666 1618v-275h-158v-1343h-334v1343h-158v275h650z" />
<glyph unicode="U" horiz-adv-x="878" d="M440.5 -20q-229.5 0 -298 60t-68.5 282v1296h332v-1296q0 -27 7 -36.5t31.5 -9.5t31.5 9.5t7 36.5v1296h324v-1296q0 -221 -68.5 -281.5t-298 -60.5z" />
<glyph unicode="V" horiz-adv-x="837" d="M479 1618h342l-174 -1618h-481l-150 1618h340l52 -1202h8z" />
<glyph unicode="W" horiz-adv-x="1298" d="M946 1618h336l-168 -1618h-418l-55 1174h-8l-68 -1174h-424l-125 1618h334l35 -1135h8l49 1135h410l35 -1135h8z" />
<glyph unicode="X" horiz-adv-x="841" d="M487 0l-73 692l-74 -692h-330l144 858l-131 760h339l74 -559l56 559h309l-123 -760l153 -858h-344z" />
<glyph unicode="Y" horiz-adv-x="790" d="M465 1618h321l-229 -1098v-520h-334v520l-219 1098h330l57 -660h8z" />
<glyph unicode="Z" horiz-adv-x="684" d="M655 285v-285h-626v289l284 1054h-250v275h586v-223l-272 -1110h278z" />
<glyph unicode="[" horiz-adv-x="542" d="M375 1675v-1847h147v-207h-381v2261h381v-207h-147z" />
<glyph unicode="\" horiz-adv-x="612" d="M0 1769h240l372 -1916h-241z" />
<glyph unicode="]" horiz-adv-x="542" d="M168 -172v1847h-148v207h381v-2261h-381v207h148z" />
<glyph unicode="^" horiz-adv-x="997" d="M694 698l-196 615l-195 -615h-258l317 920h273l317 -920h-258z" />
<glyph unicode="_" horiz-adv-x="892" d="M897 -55v-258h-899v258h899z" />
<glyph unicode="`" horiz-adv-x="462" d="M336 1649l106 -353h-221l-201 353h316z" />
<glyph unicode="a" horiz-adv-x="765" d="M326 -20q-158 0 -209 43t-51 194v297q0 113 45 163t155 50h58q57 0 84 -6v233q0 27 -7.5 36t-32 9t-30.5 -9t-6 -36v-112h-266v145q0 168 56 214t247 46q205 0 264 -45t59 -215v-987q-63 -20 -366 -20zM332 477v-211q0 -27 6 -36t31 -9q27 0 39 4v293q-20 4 -39 4 q-25 0 -31 -9t-6 -36z" />
<glyph unicode="b" horiz-adv-x="792" d="M82 1618h293v-447q45 66 160 66q119 0 155.5 -51t36.5 -199v-747q0 -147 -37 -198.5t-160 -51.5q-133 0 -176 65v-55h-272v1618zM442 297v633q0 27 -7 36t-32 9q-27 0 -36 -29v-665q10 -29 36 -29q25 0 32 9t7 36z" />
<glyph unicode="c" horiz-adv-x="753" d="M350 930v-633q0 -27 6 -36t31 -9t32 9t7 36v281h266v-338q0 -168 -56 -214t-249 -46q-203 0 -262 45t-59 215v747q0 170 59 215t262 45q193 0 249 -46t56 -214v-215h-266v158q0 27 -7 36t-32 9t-31 -9t-6 -36z" />
<glyph unicode="d" horiz-adv-x="792" d="M416 1618h295v-1618h-273v55q-45 -66 -176 -65q-123 0 -159.5 51t-36.5 199v747q0 147 36.5 198.5t155.5 51.5q113 0 158 -66v447zM350 930v-633q0 -27 6 -36t31 -9q27 0 39 29v665q-12 29 -39 29q-25 0 -31 -9t-6 -36z" />
<glyph unicode="e" horiz-adv-x="757" d="M692 518h-342v-244q0 -27 6 -36t31 -9t32 9.5t7 35.5v144h266v-178q0 -168 -56 -214t-249 -46q-203 0 -262 45t-59 215v747q0 170 59 215t262 45q193 0 249 -46t56 -214v-469zM350 946v-203h76v203q0 27 -7 36t-32 9t-31 -9t-6 -36z" />
<glyph unicode="f" horiz-adv-x="528" d="M508 1227v-236h-121v-991h-293v991h-69v236h69v131q0 139 74 199.5t254 60.5h86v-217h-49q-72 0 -72 -68v-106h121z" />
<glyph unicode="g" horiz-adv-x="792" d="M711 1227v-1247q0 -152 -73 -222.5t-241 -70.5h-297v243h265q29 0 40 11.5t11 38.5v139q-45 -66 -158 -66q-119 0 -155.5 51.5t-36.5 198.5v684q0 147 36.5 198.5t159.5 51.5q131 0 176 -66v56h273zM350 930v-570q0 -27 6 -36t31 -9q27 0 39 29v602q-12 29 -39 29 q-25 0 -31 -9t-6 -36z" />
<glyph unicode="h" d="M82 1618h293v-447q45 66 160 66q123 0 168 -53.5t45 -196.5v-987h-295v930q0 27 -7.5 36t-31.5 9q-27 0 -39 -29v-946h-293v1618z" />
<glyph unicode="i" horiz-adv-x="462" d="M377 1618v-213h-291v213h291zM377 1227v-1227h-291v1227h291z" />
<glyph unicode="j" horiz-adv-x="456" d="M375 1618v-213h-293v213h293zM375 1227v-1247q0 -150 -72 -221.5t-231 -71.5h-160v243h119q51 0 51 50v1247h293z" />
<glyph unicode="k" horiz-adv-x="788" d="M778 0h-303q-45 246 -96 606h-8v-606h-289v1618h289v-823h8q27 199 74 432h295q-100 -438 -121 -510q30 -111 151 -717z" />
<glyph unicode="l" horiz-adv-x="456" d="M375 1618v-1618h-293v1618h293z" />
<glyph unicode="m" horiz-adv-x="1191" d="M1118 987v-987h-293v930q0 27 -7 36t-32 9q-27 0 -38 -29v-946h-295v930q0 27 -7.5 36t-31.5 9q-27 0 -39 -29v-946h-293v1227h272v-56q43 66 176 66q143 0 187 -76q51 76 184 76q127 0 172 -53.5t45 -196.5z" />
<glyph unicode="n" d="M748 987v-987h-295v930q0 27 -7.5 36t-31.5 9q-27 0 -39 -29v-946h-293v1227h272v-56q43 66 176 66q125 0 171.5 -53.5t46.5 -196.5z" />
<glyph unicode="o" horiz-adv-x="776" d="M711 987v-747q0 -168 -59.5 -214t-264.5 -46q-203 0 -262 46t-59 214v747q0 168 59 214t262 46q205 0 264.5 -46t59.5 -214zM350 930v-633q0 -27 6 -36t31 -9t32 9t7 36v633q0 27 -7 36t-32 9t-31 -9t-6 -36z" />
<glyph unicode="p" horiz-adv-x="792" d="M375 -313h-293v1540h272v-56q43 66 176 66q123 0 160 -51t37 -199v-747q0 -147 -37 -198.5t-155 -51.5q-115 0 -160 65v-368zM442 297v633q0 27 -7 36t-32 9q-27 0 -36 -29v-665q10 -29 36 -29q25 0 32 9t7 36z" />
<glyph unicode="q" horiz-adv-x="792" d="M711 -313h-295v368q-45 -66 -158 -65q-119 0 -155.5 51t-36.5 199v747q0 147 36.5 198.5t159.5 51.5q131 0 176 -66v56h273v-1540zM350 930v-633q0 -27 6 -36t31 -9q27 0 39 29v665q-12 29 -39 29q-25 0 -31 -9t-6 -36z" />
<glyph unicode="r" horiz-adv-x="733" d="M717 987v-305h-264v248q0 27 -7.5 36t-31.5 9q-27 0 -39 -29v-946h-293v1227h272v-56q43 66 176 66q104 0 145.5 -54.5t41.5 -195.5z" />
<glyph unicode="s" horiz-adv-x="768" d="M707 872h-285v58q0 27 -7 36t-32 9t-31 -9.5t-6 -35.5v-62q0 -35 7 -50t34 -30l221 -122q59 -33 79 -67t20 -105v-254q0 -168 -59.5 -214t-264.5 -46q-203 0 -262.5 46t-59.5 214v190h285v-133q0 -27 6 -36t31 -9t32 9t7 36v102q0 33 -7 46.5t-32 25.5l-203 111 q-74 39 -96.5 83t-22.5 146v176q0 168 59.5 214t262.5 46q205 0 264.5 -46t59.5 -214v-115z" />
<glyph unicode="t" horiz-adv-x="522" d="M485 1227v-236h-106v-672q0 -70 72 -69h32v-250h-69q-180 0 -254 61.5t-74 198.5v731h-70v236h70v372h293v-372h106z" />
<glyph unicode="u" d="M74 240v987h293v-930q0 -27 7 -36t32 -9q27 0 38 29v946h295v-1227h-272v55q-45 -66 -176 -65q-125 0 -171 53.5t-46 196.5z" />
<glyph unicode="v" horiz-adv-x="722" d="M410 1227h305l-133 -1227h-459l-115 1227h309l43 -807h7z" />
<glyph unicode="w" horiz-adv-x="1200" d="M877 1227h315l-152 -1227h-397l-49 823h-8l-64 -823h-399l-115 1227h314l34 -797h9l43 797h380l35 -797h8z" />
<glyph unicode="x" horiz-adv-x="753" d="M436 0l-65 524l-66 -524h-295l129 651l-119 576h304l65 -424l51 424h277l-109 -576l135 -651h-307z" />
<glyph unicode="y" d="M739 1227v-1247q0 -152 -75.5 -222.5t-243.5 -70.5h-311v243h272q31 0 42 11.5t11 38.5v139q-45 -66 -166 -66q-119 0 -156.5 51.5t-37.5 198.5v924h293v-867q0 -27 7 -36t32 -9q27 0 38 29v883h295z" />
<glyph unicode="z" horiz-adv-x="655" d="M629 248v-248h-606v250l309 739h-269v238h560v-221l-297 -758h303z" />
<glyph unicode="{" horiz-adv-x="581" d="M428 971q0 -174 -96 -238q96 -68 96 -237v-543q0 -98 20.5 -130t86.5 -32h26v-207h-26q-203 0 -271.5 80t-68.5 289v559q0 125 -123 125h-25v192h25q123 0 123 125v559q0 209 68.5 289t271.5 80h26v-207h-26q-66 0 -86.5 -31.5t-20.5 -130.5v-542z" />
<glyph unicode="|" horiz-adv-x="514" d="M373 1882v-2261h-234v2261h234z" />
<glyph unicode="}" horiz-adv-x="581" d="M154 971v542q0 98 -20.5 130t-86.5 32h-27v207h27q203 0 271.5 -80t68.5 -289v-559q0 -125 123 -125h25v-192h-25q-123 0 -123 -125v-559q0 -209 -68.5 -289t-271.5 -80h-27v207h27q66 0 86.5 32t20.5 130v543q0 170 96 237q-96 64 -96 238z" />
<glyph unicode="~" horiz-adv-x="1116" d="M82 596v238q4 63 73.5 109t163.5 46q20 0 44 -4t39.5 -7t43 -14.5t37 -14.5t42 -18.5l36.5 -17.5q127 -57 207 -57q94 0 146.5 45t86.5 129v-237q-10 -68 -76.5 -113t-160.5 -45q-20 0 -44 4t-40 8t-42 13.5t-37 14.5l-41 18q-30 13 -38 18q-131 57 -207 57 q-94 0 -142 -43t-91 -129z" />
<glyph unicode="&#xa1;" horiz-adv-x="446" d="M389 0h-334l51 1231h230zM74 1329v289h297v-289h-297z" />
<glyph unicode="&#xa2;" horiz-adv-x="768" d="M508 1659v-189q113 -10 150.5 -62t37.5 -194v-260h-266v203q0 27 -7 36t-31.5 9t-31 -9t-6.5 -36v-694q0 -27 6.5 -36t31 -9t31.5 9t7 36v297h266v-354q0 -141 -37.5 -194.5t-150.5 -61.5v-191h-256v191q-109 12 -145.5 64t-36.5 192v808q0 137 36.5 190.5t145.5 63.5 v191h256z" />
<glyph unicode="&#xa3;" horiz-adv-x="860" d="M813 0h-778v274h63v277h-63v237h63v510q0 117 13.5 180.5t56.5 101.5t106.5 48t184.5 10q219 0 284.5 -60t65.5 -280v-401h-301v401q0 27 -7 36t-32 9t-32 -9t-7 -36v-510h330v-237h-330v-277h383v-274z" />
<glyph unicode="&#xa4;" horiz-adv-x="1157" d="M186 272l-143 144l195 196q-10 39 -11 119v156q0 78 11 117l-193 194l143 145l224 -225q63 8 172 8q96 0 161 -6l224 223l145 -145l-186 -184q16 -43 16 -127v-156q0 -86 -16 -129l186 -186l-145 -144l-224 224q-45 -4 -161 -4q-125 0 -170 6zM774 743v134 q0 63 -33.5 83.5t-156.5 20.5t-155 -20.5t-32 -83.5v-134q0 -63 32 -83.5t155 -20.5q125 0 157.5 20.5t32.5 83.5z" />
<glyph unicode="&#xa5;" horiz-adv-x="864" d="M784 412v-183h-174v-229h-350v229h-199v183h199v135h-199v182h183l-203 889h324l63 -571h8l62 571h325l-198 -889h159v-182h-174v-135h174z" />
<glyph unicode="&#xa6;" horiz-adv-x="514" d="M373 -379h-234v903h234v-903zM373 1882v-803h-234v803h234z" />
<glyph unicode="&#xa7;" horiz-adv-x="768" d="M707 1266h-285v57q0 27 -7 35t-32 8t-31 -8t-6 -35v-61q0 -37 7 -51.5t34 -30.5l221 -121q59 -35 79 -69t20 -105v-254q0 -125 -31 -178q31 -37 31 -119v-254q0 -168 -59.5 -214t-264.5 -46q-203 0 -262.5 46t-59.5 214v190h285v-135q0 -27 6 -35t31 -8t32 8.5t7 34.5 v105q0 35 -7 47t-32 24l-203 109q-70 39 -94.5 82t-24.5 129v196q0 147 43 199q-27 27 -35 63.5t-8 112.5v176q0 168 59.5 214t262.5 46q205 0 264.5 -46t59.5 -214v-112zM346 676q0 -29 5 -37t32 -8q25 0 32 9t7 36v106q0 27 -7 36t-32 9t-31 -9t-6 -36v-106z" />
<glyph unicode="&#xa8;" horiz-adv-x="868" d="M784 1618v-213h-292v213h292zM377 1618v-213h-291v213h291z" />
<glyph unicode="&#xa9;" horiz-adv-x="1314" d="M655 1638q129 0 212 -5t156 -20.5t112 -41t67.5 -71.5t37.5 -105.5t9 -149.5v-872q0 -109 -16 -175.5t-51 -112.5t-109 -67.5t-167 -29.5t-250.5 -8t-250 8t-166 29.5t-107.5 67.5t-50 112.5t-16 175.5v872q0 106 16 174t51 114t108.5 67.5t165.5 29.5t248 8zM1012 379 v866q0 82 -21.5 120t-97.5 57.5t-238 19.5q-160 0 -235.5 -19.5t-96 -57.5t-20.5 -120v-866q0 -63 9.5 -96t46 -58.5t105 -34t191.5 -8.5q162 0 238 18.5t97.5 56.5t21.5 122zM631 1024v-406q0 -31 32.5 -30.5t32.5 30.5v181h166v-219q0 -113 -37 -142.5t-161 -29.5 q-133 0 -171 29.5t-38 142.5v485q0 111 37.5 139.5t171.5 28.5q127 0 162.5 -28.5t35.5 -139.5v-141h-166v100q0 33 -32.5 33t-32.5 -33z" />
<glyph unicode="&#xaa;" horiz-adv-x="579" d="M248 797q-104 0 -137 25.5t-33 111.5v162q0 66 28.5 94.5t104.5 28.5h37q31 0 51 -5v119q0 10 -3 13.5t-17.5 3.5t-17.5 -3.5t-3 -13.5v-67h-180v86q0 98 36 123.5t165 25.5q137 0 176 -25.5t39 -123.5v-543q-51 -12 -246 -12zM258 1075v-114q0 -16 21 -17h20v146 q-6 2 -20 2q-21 -1 -21 -17z" />
<glyph unicode="&#xab;" horiz-adv-x="987" d="M70 877l352 204v-202l-191 -125l191 -127v-201l-352 203v248zM563 877l352 204v-202l-190 -125l190 -127v-201l-352 203v248z" />
<glyph unicode="&#xac;" horiz-adv-x="1083" d="M1001 0h-258v690h-661v258h919v-948z" />
<glyph unicode="&#xad;" horiz-adv-x="436" d="M401 811v-258h-366v258h366z" />
<glyph unicode="&#xae;" horiz-adv-x="1314" d="M655 1638q129 0 212 -5t156 -20.5t112 -41t67.5 -71.5t37.5 -105.5t9 -149.5v-872q0 -109 -16 -175.5t-51 -112.5t-109 -67.5t-167 -29.5t-250.5 -8t-250 8t-166 29.5t-107.5 67.5t-50 112.5t-16 175.5v872q0 106 16 174t51 114t108.5 67.5t165.5 29.5t248 8zM1012 379 v866q0 82 -21.5 120t-97.5 57.5t-238 19.5q-160 0 -235.5 -19.5t-96 -57.5t-20.5 -120v-866q0 -63 9.5 -96t46 -58.5t105 -34t191.5 -8.5q162 0 238 18.5t97.5 56.5t21.5 122zM629 752v-361h-195v883h225q145 0 187.5 -36t42.5 -167v-102q0 -121 -86 -135v-5q86 -18 86 -170 v-268h-197v332q0 18 -4 23.5t-20 5.5h-39zM629 1100v-191h39q16 0 20 5.5t4 21.5v135q0 18 -4 23.5t-20 5.5h-39z" />
<glyph unicode="&#xaf;" horiz-adv-x="829" d="M743 1597v-172h-657v172h657z" />
<glyph unicode="&#xb0;" horiz-adv-x="724" d="M688 1294.5q0 -141.5 -94 -242t-229 -100.5q-139 0 -233.5 100.5t-94.5 241.5q0 143 93 243.5t235 100.5q135 0 229 -101t94 -242.5zM535 1294.5q0 73.5 -50.5 127t-119.5 53.5q-74 0 -125.5 -53.5t-51.5 -127t51.5 -127t125.5 -53.5q70 0 120 53.5t50 127z" />
<glyph unicode="&#xb1;" horiz-adv-x="1083" d="M670 358h-258v332h-330v258h330v330h258v-330h331v-258h-331v-332zM1001 0h-919v258h919v-258z" />
<glyph unicode="&#xb2;" horiz-adv-x="667" d="M195 1245l118 58q39 20 39 45v90q0 16 -20.5 16t-20.5 -16v-88h-219v88q0 125 44 158.5t202 33.5q154 0 197 -32.5t43 -159.5v-99q0 -78 -20.5 -112.5t-88.5 -67.5l-135 -63q-23 -10 -23 -31v-162h41v150h226v-328h-492v336q0 88 19.5 119.5t89.5 64.5z" />
<glyph unicode="&#xb3;" horiz-adv-x="636" d="M555 1331q0 -96 -70 -121q70 -29 70 -151v-156q0 -121 -45 -155.5t-201 -34.5q-147 0 -191 33.5t-44 160.5v160h213v-160q0 -16 22 -16q20 0 21 16v197q0 14 -21 14h-100v180h100q20 0 21 17v123q0 16 -21 16q-23 0 -22 -16v-88h-213v88q0 125 44 158.5t191 33.5 q156 0 201 -33.5t45 -154.5v-111z" />
<glyph unicode="&#xb4;" horiz-adv-x="462" d="M20 1296l107 353h315l-200 -353h-222z" />
<glyph unicode="&#xb5;" d="M74 -313v1540h293v-930q0 -27 7 -36t32 -9q27 0 38 29v946h295v-1227h-272v55q-43 -59 -152 -65l29 -303h-270z" />
<glyph unicode="&#xb6;" horiz-adv-x="1290" d="M430 1618h776v-1931h-334v1656h-69v-1656h-334v925h-39q-233 0 -302 58.5t-69 271.5v346q0 213 69 271.5t302 58.5zM469 881v452h-39q-25 0 -32 -9t-7 -36v-362q0 -27 7.5 -36t31.5 -9h39z" />
<glyph unicode="&#xb7;" horiz-adv-x="460" d="M379 965v-289h-297v289h297z" />
<glyph unicode="&#xb8;" horiz-adv-x="415" d="M16 -379l88 338h293l-180 -338h-201z" />
<glyph unicode="&#xb9;" horiz-adv-x="444" d="M53 1448v172h301v-895h-223v723h-78z" />
<glyph unicode="&#xba;" horiz-adv-x="585" d="M506 1352v-406q0 -96 -40 -122.5t-175 -26.5q-133 0 -173 26.5t-40 122.5v406q0 98 39 123.5t174 25.5t175 -25.5t40 -123.5zM270 1321v-342q0 -10 3 -13t17.5 -3t17.5 3t3 13v342q0 16 -20.5 16t-20.5 -16z" />
<glyph unicode="&#xbb;" horiz-adv-x="987" d="M72 1081l352 -204v-248l-352 -203v201l190 127l-190 125v202zM565 1081l353 -204v-248l-353 -203v201l191 127l-191 125v202z" />
<glyph unicode="&#xbc;" horiz-adv-x="1427" d="M53 1448v172h301v-895h-223v723h-78zM836 1618h221l-701 -1618h-219zM1307 406h55v-170h-55v-236h-230v236h-243v663h200v-493h43v356h230v-356z" />
<glyph unicode="&#xbd;" horiz-adv-x="1415" d="M53 1448v172h301v-895h-223v723h-78zM836 1618h221l-701 -1618h-219zM942 520l119 58q39 20 39 45v90q0 16 -20.5 16t-20.5 -16v-88h-219v88q0 125 44 158.5t201 33.5q154 0 197 -32.5t43 -159.5v-99q0 -78 -20.5 -112.5t-87.5 -67.5l-136 -63q-23 -10 -22 -31v-162h41 v150h225v-328h-491v336q0 88 19 119.5t89 64.5z" />
<glyph unicode="&#xbe;" horiz-adv-x="1619" d="M555 1331q0 -96 -70 -121q70 -29 70 -151v-156q0 -121 -45 -155.5t-201 -34.5q-147 0 -191 33.5t-44 160.5v160h213v-160q0 -16 22 -16q20 0 21 16v197q0 14 -21 14h-100v180h100q20 0 21 17v123q0 16 -21 16q-23 0 -22 -16v-88h-213v88q0 125 44 158.5t191 33.5 q156 0 201 -33.5t45 -154.5v-111zM1028 1618h221l-700 -1618h-219zM1499 406h55v-170h-55v-236h-229v236h-244v663h201v-493h43v356h229v-356z" />
<glyph unicode="&#xbf;" horiz-adv-x="841" d="M463 524h323v-205q0 -219 -67.5 -279t-294.5 -60q-236 0 -304.5 59t-68.5 280v164q0 92 14.5 143.5t59.5 125.5l149 247q27 41 27 99v133h281v-172q0 -98 -13.5 -153.5t-54.5 -121.5l-100 -155q-29 -41 -29 -101v-209q0 -27 7 -36t32 -9t32 9.5t7 35.5v205zM287 1329v289 h299v-289h-299z" />
<glyph unicode="&#xc0;" horiz-adv-x="870" d="M434 1638q229 0 299 -60t70 -280v-1298h-334v322h-78v-322h-321v1298q0 117 13 180.5t58 101.5t109.5 48t183.5 10zM391 1298v-704h78v704q0 27 -7 36t-31.5 9t-32 -9t-7.5 -36zM477 2040l107 -352h-222l-200 352h315z" />
<glyph unicode="&#xc1;" horiz-adv-x="870" d="M434 1638q229 0 299 -60t70 -280v-1298h-334v322h-78v-322h-321v1298q0 117 13 180.5t58 101.5t109.5 48t183.5 10zM391 1298v-704h78v704q0 27 -7 36t-31.5 9t-32 -9t-7.5 -36zM285 1688l106 352h316l-201 -352h-221z" />
<glyph unicode="&#xc2;" horiz-adv-x="870" d="M434 1638q229 0 299 -60t70 -280v-1298h-334v322h-78v-322h-321v1298q0 117 13 180.5t58 101.5t109.5 48t183.5 10zM391 1298v-704h78v704q0 27 -7 36t-31.5 9t-32 -9t-7.5 -36zM559 2040l203 -352h-201l-125 190l-127 -190h-200l202 352h248z" />
<glyph unicode="&#xc3;" horiz-adv-x="870" d="M434 1638q229 0 299 -60t70 -280v-1298h-334v322h-78v-322h-321v1298q0 117 13 180.5t58 101.5t109.5 48t183.5 10zM391 1298v-704h78v704q0 27 -7 36t-31.5 9t-32 -9t-7.5 -36zM252 1847q-94 0 -146 -73v202q59 51 150 52q63 0 177 -33t179 -33q100 0 152 74v-199 q-53 -59 -156 -59q-63 0 -176.5 34.5t-179.5 34.5z" />
<glyph unicode="&#xc4;" horiz-adv-x="870" d="M434 1638q229 0 299 -60t70 -280v-1298h-334v322h-78v-322h-321v1298q0 117 13 180.5t58 101.5t109.5 48t183.5 10zM391 1298v-704h78v704q0 27 -7 36t-31.5 9t-32 -9t-7.5 -36zM784 2009v-213h-292v213h292zM377 2009v-213h-291v213h291z" />
<glyph unicode="&#xc5;" horiz-adv-x="870" d="M434 1638q229 0 299 -60t70 -280v-1298h-334v322h-78v-322h-321v1298q0 117 13 180.5t58 101.5t109.5 48t183.5 10zM391 1298v-704h78v704q0 27 -7 36t-31.5 9t-32 -9t-7.5 -36zM608 1901v-95q0 -90 -31.5 -114.5t-142.5 -24.5q-109 0 -140.5 24.5t-31.5 114.5v95 q0 90 32 114.5t140 24.5q111 0 142.5 -24.5t31.5 -114.5zM512 1812v82q0 31 -14.5 39.5t-63.5 8.5t-62.5 -8.5t-13.5 -39.5v-82q0 -31 13.5 -39t62.5 -8t63.5 8t14.5 39z" />
<glyph unicode="&#xc6;" horiz-adv-x="1050" d="M434 1618h533v-272h-174v-119h165v-262h-165v-680h176v-285h-500v322h-78v-322h-321v1288q0 117 13 179.5t59 98.5t107.5 44t184.5 8zM391 1300v-706h78v752h-39q-25 0 -32 -9.5t-7 -36.5z" />
<glyph unicode="&#xc7;" horiz-adv-x="858" d="M397 1298v-976q0 -27 7.5 -36.5t32 -9.5t31.5 9.5t7 36.5v374h320v-374q0 -117 -13.5 -181.5t-57.5 -102.5t-107.5 -48t-180.5 -10q-236 0 -303 60t-67 282v976q0 221 67.5 280.5t302.5 59.5q117 0 180.5 -10t107.5 -48t57.5 -102.5t13.5 -179.5v-366h-320v366 q0 27 -7 36t-31.5 9t-32 -9t-7.5 -36zM193 -379l88 338h292l-180 -338h-200z" />
<glyph unicode="&#xc8;" horiz-adv-x="630" d="M592 285v-285h-510v1618h508v-272h-176v-119h168v-262h-168v-680h178zM379 2040l106 -352h-221l-201 352h316z" />
<glyph unicode="&#xc9;" horiz-adv-x="630" d="M592 285v-285h-510v1618h508v-272h-176v-119h168v-262h-168v-680h178zM186 1688l107 352h315l-200 -352h-222z" />
<glyph unicode="&#xca;" horiz-adv-x="630" d="M592 285v-285h-510v1618h508v-272h-176v-119h168v-262h-168v-680h178zM461 2040l203 -352h-201l-125 190l-127 -190h-201l203 352h248z" />
<glyph unicode="&#xcb;" horiz-adv-x="630" d="M592 285v-285h-510v1618h508v-272h-176v-119h168v-262h-168v-680h178zM686 2009v-213h-293v213h293zM279 2009v-213h-291v213h291z" />
<glyph unicode="&#xcc;" horiz-adv-x="503" d="M418 1618v-1618h-332v1618h332zM295 2040l106 -352h-221l-200 352h315z" />
<glyph unicode="&#xcd;" horiz-adv-x="503" d="M418 1618v-1618h-332v1618h332zM102 1688l107 352h315l-200 -352h-222z" />
<glyph unicode="&#xce;" horiz-adv-x="503" d="M418 1618v-1618h-332v1618h332zM377 2040l203 -352h-201l-125 190l-127 -190h-201l203 352h248z" />
<glyph unicode="&#xcf;" horiz-adv-x="503" d="M418 1618v-1618h-332v1618h332zM602 2009v-213h-293v213h293zM195 2009v-213h-291v213h291z" />
<glyph unicode="&#xd0;" horiz-adv-x="952" d="M82 965v262h61v391h373q233 0 302 -58.5t69 -271.5v-956q0 -213 -68.5 -272.5t-302.5 -59.5h-373v965h-61zM467 1333v-106h51v-262h-51v-678h59q25 0 32 9t7 36v956q0 27 -7 36t-32 9h-59z" />
<glyph unicode="&#xd1;" horiz-adv-x="942" d="M860 1618v-1618h-344l-151 780h-9v-780h-274v1618h356l137 -819h9v819h276zM287 1847q-94 0 -146 -73v202q59 51 150 52q63 0 177 -33t179 -33q100 0 152 74v-199q-53 -59 -156 -59q-63 0 -176.5 34.5t-179.5 34.5z" />
<glyph unicode="&#xd2;" horiz-adv-x="872" d="M809 1298v-976q0 -117 -13.5 -181.5t-59.5 -102.5t-111.5 -48t-188.5 -10q-236 0 -303 60t-67 282v976q0 221 67.5 280.5t303 59.5t304 -59.5t68.5 -280.5zM397 1298v-976q0 -27 7.5 -36.5t32 -9.5t31.5 9.5t7 36.5v976q0 27 -7 36t-31.5 9t-32 -9t-7.5 -36zM479 2040 l107 -352h-221l-201 352h315z" />
<glyph unicode="&#xd3;" horiz-adv-x="872" d="M809 1298v-976q0 -117 -13.5 -181.5t-59.5 -102.5t-111.5 -48t-188.5 -10q-236 0 -303 60t-67 282v976q0 221 67.5 280.5t303 59.5t304 -59.5t68.5 -280.5zM397 1298v-976q0 -27 7.5 -36.5t32 -9.5t31.5 9.5t7 36.5v976q0 27 -7 36t-31.5 9t-32 -9t-7.5 -36zM287 1688 l106 352h316l-201 -352h-221z" />
<glyph unicode="&#xd4;" horiz-adv-x="872" d="M809 1298v-976q0 -117 -13.5 -181.5t-59.5 -102.5t-111.5 -48t-188.5 -10q-236 0 -303 60t-67 282v976q0 221 67.5 280.5t303 59.5t304 -59.5t68.5 -280.5zM397 1298v-976q0 -27 7.5 -36.5t32 -9.5t31.5 9.5t7 36.5v976q0 27 -7 36t-31.5 9t-32 -9t-7.5 -36zM559 2040 l203 -352h-201l-125 190l-127 -190h-200l202 352h248z" />
<glyph unicode="&#xd5;" horiz-adv-x="872" d="M809 1298v-976q0 -117 -13.5 -181.5t-59.5 -102.5t-111.5 -48t-188.5 -10q-236 0 -303 60t-67 282v976q0 221 67.5 280.5t303 59.5t304 -59.5t68.5 -280.5zM397 1298v-976q0 -27 7.5 -36.5t32 -9.5t31.5 9.5t7 36.5v976q0 27 -7 36t-31.5 9t-32 -9t-7.5 -36zM252 1847 q-94 0 -146 -73v202q59 51 150 52q63 0 177 -33t179 -33q100 0 152 74v-199q-53 -59 -156 -59q-63 0 -176.5 34.5t-179.5 34.5z" />
<glyph unicode="&#xd6;" horiz-adv-x="872" d="M809 1298v-976q0 -117 -13.5 -181.5t-59.5 -102.5t-111.5 -48t-188.5 -10q-236 0 -303 60t-67 282v976q0 221 67.5 280.5t303 59.5t304 -59.5t68.5 -280.5zM397 1298v-976q0 -27 7.5 -36.5t32 -9.5t31.5 9.5t7 36.5v976q0 27 -7 36t-31.5 9t-32 -9t-7.5 -36zM784 2009 v-213h-292v213h292zM377 2009v-213h-291v213h291z" />
<glyph unicode="&#xd7;" horiz-adv-x="1083" d="M307 401l-182 183l235 235l-233 234l182 182l234 -234l233 234l182 -182l-233 -234l233 -235l-182 -183l-233 236z" />
<glyph unicode="&#xd8;" horiz-adv-x="872" d="M610 1761h199l-57 -194q57 -68 57 -269v-976q0 -117 -13.5 -181.5t-59.5 -102.5t-111.5 -48t-188.5 -10q-76 0 -135 6l-37 -127h-198l55 194q-55 66 -55 269v976q0 221 67.5 280.5t302.5 59.5q80 0 137 -6zM436 256q49 0 49 45v371l-98 -340v-31q0 -45 49 -45zM387 1319 v-371l98 340v31q0 43 -49 43t-49 -43z" />
<glyph unicode="&#xd9;" horiz-adv-x="878" d="M440.5 -20q-229.5 0 -298 60t-68.5 282v1296h332v-1296q0 -27 7 -36.5t31.5 -9.5t31.5 9.5t7 36.5v1296h324v-1296q0 -221 -68.5 -281.5t-298 -60.5zM481 2040l107 -352h-221l-201 352h315z" />
<glyph unicode="&#xda;" horiz-adv-x="878" d="M440.5 -20q-229.5 0 -298 60t-68.5 282v1296h332v-1296q0 -27 7 -36.5t31.5 -9.5t31.5 9.5t7 36.5v1296h324v-1296q0 -221 -68.5 -281.5t-298 -60.5zM289 1688l106 352h316l-201 -352h-221z" />
<glyph unicode="&#xdb;" horiz-adv-x="878" d="M440.5 -20q-229.5 0 -298 60t-68.5 282v1296h332v-1296q0 -27 7 -36.5t31.5 -9.5t31.5 9.5t7 36.5v1296h324v-1296q0 -221 -68.5 -281.5t-298 -60.5zM563 2040l203 -352h-201l-125 190l-127 -190h-200l202 352h248z" />
<glyph unicode="&#xdc;" horiz-adv-x="878" d="M440.5 -20q-229.5 0 -298 60t-68.5 282v1296h332v-1296q0 -27 7 -36.5t31.5 -9.5t31.5 9.5t7 36.5v1296h324v-1296q0 -221 -68.5 -281.5t-298 -60.5zM788 2009v-213h-292v213h292zM381 2009v-213h-291v213h291z" />
<glyph unicode="&#xdd;" horiz-adv-x="790" d="M465 1618h321l-229 -1098v-520h-334v520l-219 1098h330l57 -660h8zM246 1688l106 352h316l-201 -352h-221z" />
<glyph unicode="&#xde;" horiz-adv-x="864" d="M414 1382h39q236 0 304 -58t68 -271v-346q0 -213 -68.5 -271.5t-303.5 -58.5h-39v-377h-332v1618h332v-236zM414 1098v-453h39q25 0 32 9.5t7 35.5v363q0 27 -7.5 36t-31.5 9h-39z" />
<glyph unicode="&#xdf;" horiz-adv-x="858" d="M645 883v-9q72 -16 113 -76.5t41 -199.5v-266q0 -205 -61.5 -268.5t-262.5 -63.5h-74v297h35q41 0 41 35v350q0 45 -51 45h-37v301h12q51 0 52 45v275q0 27 -8.5 36t-35 9t-35.5 -9.5t-9 -35.5v-1348h-295v1370q0 164 83 216t250 52q92 0 151.5 -8t114 -34.5t80 -82 t25.5 -143.5v-266q0 -196 -129 -221z" />
<glyph unicode="&#xe0;" horiz-adv-x="765" d="M326 -20q-158 0 -209 43t-51 194v297q0 113 45 163t155 50h58q57 0 84 -6v233q0 27 -7.5 36t-32 9t-30.5 -9t-6 -36v-112h-266v145q0 168 56 214t247 46q205 0 264 -45t59 -215v-987q-63 -20 -366 -20zM332 477v-211q0 -27 6 -36t31 -9q27 0 39 4v293q-20 4 -39 4 q-25 0 -31 -9t-6 -36zM426 1649l106 -353h-221l-200 353h315z" />
<glyph unicode="&#xe1;" horiz-adv-x="765" d="M326 -20q-158 0 -209 43t-51 194v297q0 113 45 163t155 50h58q57 0 84 -6v233q0 27 -7.5 36t-32 9t-30.5 -9t-6 -36v-112h-266v145q0 168 56 214t247 46q205 0 264 -45t59 -215v-987q-63 -20 -366 -20zM332 477v-211q0 -27 6 -36t31 -9q27 0 39 4v293q-20 4 -39 4 q-25 0 -31 -9t-6 -36zM233 1296l107 353h315l-200 -353h-222z" />
<glyph unicode="&#xe2;" horiz-adv-x="765" d="M326 -20q-158 0 -209 43t-51 194v297q0 113 45 163t155 50h58q57 0 84 -6v233q0 27 -7.5 36t-32 9t-30.5 -9t-6 -36v-112h-266v145q0 168 56 214t247 46q205 0 264 -45t59 -215v-987q-63 -20 -366 -20zM332 477v-211q0 -27 6 -36t31 -9q27 0 39 4v293q-20 4 -39 4 q-25 0 -31 -9t-6 -36zM506 1649l203 -353h-201l-125 191l-127 -191h-201l203 353h248z" />
<glyph unicode="&#xe3;" horiz-adv-x="765" d="M326 -20q-158 0 -209 43t-51 194v297q0 113 45 163t155 50h58q57 0 84 -6v233q0 27 -7.5 36t-32 9t-30.5 -9t-6 -36v-112h-266v145q0 168 56 214t247 46q205 0 264 -45t59 -215v-987q-63 -20 -366 -20zM332 477v-211q0 -27 6 -36t31 -9q27 0 39 4v293q-20 4 -39 4 q-25 0 -31 -9t-6 -36zM201 1456q-94 0 -146 -74v203q59 51 150 51q63 0 177 -32.5t179 -32.5q100 0 152 74v-199q-53 -59 -156 -60q-63 0 -176.5 35t-179.5 35z" />
<glyph unicode="&#xe4;" horiz-adv-x="765" d="M326 -20q-158 0 -209 43t-51 194v297q0 113 45 163t155 50h58q57 0 84 -6v233q0 27 -7.5 36t-32 9t-30.5 -9t-6 -36v-112h-266v145q0 168 56 214t247 46q205 0 264 -45t59 -215v-987q-63 -20 -366 -20zM332 477v-211q0 -27 6 -36t31 -9q27 0 39 4v293q-20 4 -39 4 q-25 0 -31 -9t-6 -36zM733 1618v-213h-293v213h293zM326 1618v-213h-291v213h291z" />
<glyph unicode="&#xe5;" horiz-adv-x="765" d="M326 -20q-158 0 -209 43t-51 194v297q0 113 45 163t155 50h58q57 0 84 -6v233q0 27 -7.5 36t-32 9t-30.5 -9t-6 -36v-112h-266v145q0 168 56 214t247 46q205 0 264 -45t59 -215v-987q-63 -20 -366 -20zM332 477v-211q0 -27 6 -36t31 -9q27 0 39 4v293q-20 4 -39 4 q-25 0 -31 -9t-6 -36zM555 1509v-94q0 -90 -31.5 -114.5t-142.5 -24.5q-109 0 -140.5 24.5t-31.5 114.5v94q0 90 31.5 115t140.5 25q111 0 142.5 -25t31.5 -115zM459 1421v82q0 31 -14.5 39t-63.5 8t-62.5 -8t-13.5 -39v-82q0 -31 13.5 -39t62.5 -8t63.5 8t14.5 39z" />
<glyph unicode="&#xe6;" horiz-adv-x="1101" d="M336 -20q-166 0 -218 43t-52 194v313q0 113 45 163t155 50q102 0 142 -14v225q0 27 -7.5 36t-32 9t-30.5 -9t-6 -36v-112h-266v145q0 168 56 214t247 46q147 0 180 -59q33 59 182 59q193 0 249 -46t56 -214v-469h-344v-260q2 -29 39 -29q25 0 32 9.5t7 35.5v144h266v-178 q0 -168 -56 -214t-249 -46q-154 0 -182 59q-16 -31 -58 -45t-155 -14zM692 946v-203h78v203q0 27 -7 36t-31.5 9t-32 -9t-7.5 -36zM332 479v-213q0 -27 6 -36t30.5 -9t32 9.5t7.5 35.5v254q-20 4 -39 4q-25 0 -31 -9t-6 -36z" />
<glyph unicode="&#xe7;" horiz-adv-x="753" d="M350 930v-633q0 -27 6 -36t31 -9t32 9t7 36v281h266v-338q0 -168 -56 -214t-249 -46q-203 0 -262 45t-59 215v747q0 170 59 215t262 45q193 0 249 -46t56 -214v-215h-266v158q0 27 -7 36t-32 9t-31 -9t-6 -36zM139 -379l88 338h293l-180 -338h-201z" />
<glyph unicode="&#xe8;" horiz-adv-x="757" d="M692 518h-342v-244q0 -27 6 -36t31 -9t32 9.5t7 35.5v144h266v-178q0 -168 -56 -214t-249 -46q-203 0 -262 45t-59 215v747q0 170 59 215t262 45q193 0 249 -46t56 -214v-469zM350 946v-203h76v203q0 27 -7 36t-32 9t-31 -9t-6 -36zM422 1649l106 -353h-221l-201 353h316 z" />
<glyph unicode="&#xe9;" horiz-adv-x="757" d="M692 518h-342v-244q0 -27 6 -36t31 -9t32 9.5t7 35.5v144h266v-178q0 -168 -56 -214t-249 -46q-203 0 -262 45t-59 215v747q0 170 59 215t262 45q193 0 249 -46t56 -214v-469zM350 946v-203h76v203q0 27 -7 36t-32 9t-31 -9t-6 -36zM229 1296l107 353h315l-200 -353h-222 z" />
<glyph unicode="&#xea;" horiz-adv-x="757" d="M692 518h-342v-244q0 -27 6 -36t31 -9t32 9.5t7 35.5v144h266v-178q0 -168 -56 -214t-249 -46q-203 0 -262 45t-59 215v747q0 170 59 215t262 45q193 0 249 -46t56 -214v-469zM350 946v-203h76v203q0 27 -7 36t-32 9t-31 -9t-6 -36zM502 1649l203 -353h-201l-125 191 l-127 -191h-201l203 353h248z" />
<glyph unicode="&#xeb;" horiz-adv-x="757" d="M692 518h-342v-244q0 -27 6 -36t31 -9t32 9.5t7 35.5v144h266v-178q0 -168 -56 -214t-249 -46q-203 0 -262 45t-59 215v747q0 170 59 215t262 45q193 0 249 -46t56 -214v-469zM350 946v-203h76v203q0 27 -7 36t-32 9t-31 -9t-6 -36zM729 1618v-213h-293v213h293z M322 1618v-213h-291v213h291z" />
<glyph unicode="&#xec;" horiz-adv-x="493" d="M408 1227v-1227h-291v1227h291zM305 1649l107 -353h-222l-200 353h315z" />
<glyph unicode="&#xed;" horiz-adv-x="512" d="M377 1227v-1227h-291v1227h291zM82 1296l106 353h316l-201 -353h-221z" />
<glyph unicode="&#xee;" horiz-adv-x="604" d="M446 1227v-1227h-290v1227h290zM426 1649l203 -353h-201l-125 191l-127 -191h-201l203 353h248z" />
<glyph unicode="&#xef;" horiz-adv-x="669" d="M479 1227v-1227h-291v1227h291zM684 1618v-213h-293v213h293zM276 1618v-213h-290v213h290z" />
<glyph unicode="&#xf0;" horiz-adv-x="780" d="M135 1169l-55 111l121 61l-135 277h331l70 -141l117 61l55 -111l-119 -61l152 -305q43 -86 43 -199v-622q0 -168 -59.5 -214t-264.5 -46q-203 0 -262 45t-59 215v616q0 141 52 191.5t200 50.5l-68 133zM354 829v-532q0 -27 6.5 -36t31 -9t31.5 9t7 36v545q-10 31 -39 30 q-25 0 -31 -8t-6 -35z" />
<glyph unicode="&#xf1;" d="M748 987v-987h-295v930q0 27 -7.5 36t-31.5 9q-27 0 -39 -29v-946h-293v1227h272v-56q43 66 176 66q125 0 171.5 -53.5t46.5 -196.5zM227 1456q-94 0 -145 -74v203q59 51 149 51q63 0 177 -32.5t180 -32.5q100 0 151 74v-199q-53 -59 -155 -60q-63 0 -177 35t-180 35z " />
<glyph unicode="&#xf2;" horiz-adv-x="776" d="M711 987v-747q0 -168 -59.5 -214t-264.5 -46q-203 0 -262 46t-59 214v747q0 168 59 214t262 46q205 0 264.5 -46t59.5 -214zM350 930v-633q0 -27 6 -36t31 -9t32 9t7 36v633q0 27 -7 36t-32 9t-31 -9t-6 -36zM430 1649l107 -353h-222l-200 353h315z" />
<glyph unicode="&#xf3;" horiz-adv-x="776" d="M711 987v-747q0 -168 -59.5 -214t-264.5 -46q-203 0 -262 46t-59 214v747q0 168 59 214t262 46q205 0 264.5 -46t59.5 -214zM350 930v-633q0 -27 6 -36t31 -9t32 9t7 36v633q0 27 -7 36t-32 9t-31 -9t-6 -36zM238 1296l106 353h315l-200 -353h-221z" />
<glyph unicode="&#xf4;" horiz-adv-x="776" d="M711 987v-747q0 -168 -59.5 -214t-264.5 -46q-203 0 -262 46t-59 214v747q0 168 59 214t262 46q205 0 264.5 -46t59.5 -214zM350 930v-633q0 -27 6 -36t31 -9t32 9t7 36v633q0 27 -7 36t-32 9t-31 -9t-6 -36zM512 1649l203 -353h-201l-125 191l-127 -191h-201l203 353 h248z" />
<glyph unicode="&#xf5;" horiz-adv-x="776" d="M711 987v-747q0 -168 -59.5 -214t-264.5 -46q-203 0 -262 46t-59 214v747q0 168 59 214t262 46q205 0 264.5 -46t59.5 -214zM350 930v-633q0 -27 6 -36t31 -9t32 9t7 36v633q0 27 -7 36t-32 9t-31 -9t-6 -36zM205 1456q-94 0 -146 -74v203q59 51 150 51q63 0 177 -32.5 t179 -32.5q100 0 152 74v-199q-53 -59 -156 -60q-63 0 -176.5 35t-179.5 35z" />
<glyph unicode="&#xf6;" horiz-adv-x="776" d="M711 987v-747q0 -168 -59.5 -214t-264.5 -46q-203 0 -262 46t-59 214v747q0 168 59 214t262 46q205 0 264.5 -46t59.5 -214zM350 930v-633q0 -27 6 -36t31 -9t32 9t7 36v633q0 27 -7 36t-32 9t-31 -9t-6 -36zM737 1618v-213h-293v213h293zM330 1618v-213h-291v213h291z " />
<glyph unicode="&#xf7;" horiz-adv-x="1083" d="M1001 690h-919v258h919v-258zM690 487v-288h-297v288h297zM690 1442v-289h-297v289h297z" />
<glyph unicode="&#xf8;" horiz-adv-x="776" d="M512 1368h199l-54 -174q53 -51 54 -207v-747q0 -168 -59.5 -214t-264.5 -46q-16 0 -45 1t-41 1l-37 -123h-198l51 174q-51 49 -51 207v747q0 168 59 214t262 46q16 0 46 -1t42 -1zM344 971v-211l74 252q-16 4 -31 4q-29 0 -36 -8t-7 -37zM387 211q31 0 38 8t7 37v211 l-74 -254q6 -2 29 -2z" />
<glyph unicode="&#xf9;" d="M74 240v987h293v-930q0 -27 7 -36t32 -9q27 0 38 29v946h295v-1227h-272v55q-45 -66 -176 -65q-125 0 -171 53.5t-46 196.5zM453 1649l106 -353h-221l-201 353h316z" />
<glyph unicode="&#xfa;" d="M74 240v987h293v-930q0 -27 7 -36t32 -9q27 0 38 29v946h295v-1227h-272v55q-45 -66 -176 -65q-125 0 -171 53.5t-46 196.5zM260 1296l107 353h315l-201 -353h-221z" />
<glyph unicode="&#xfb;" d="M74 240v987h293v-930q0 -27 7 -36t32 -9q27 0 38 29v946h295v-1227h-272v55q-45 -66 -176 -65q-125 0 -171 53.5t-46 196.5zM535 1649l202 -353h-200l-125 191l-127 -191h-201l203 353h248z" />
<glyph unicode="&#xfc;" d="M74 240v987h293v-930q0 -27 7 -36t32 -9q27 0 38 29v946h295v-1227h-272v55q-45 -66 -176 -65q-125 0 -171 53.5t-46 196.5zM760 1618v-213h-293v213h293zM352 1618v-213h-291v213h291z" />
<glyph unicode="&#xfd;" d="M739 1227v-1247q0 -152 -75.5 -222.5t-243.5 -70.5h-311v243h272q31 0 42 11.5t11 38.5v139q-45 -66 -166 -66q-119 0 -156.5 51.5t-37.5 198.5v924h293v-867q0 -27 7 -36t32 -9q27 0 38 29v883h295zM260 1296l107 353h315l-201 -353h-221z" />
<glyph unicode="&#xfe;" horiz-adv-x="792" d="M82 -313v1931h293v-447q45 66 160 66q119 0 155.5 -51t36.5 -199v-747q0 -147 -37 -198.5t-155 -51.5q-115 0 -160 65v-368h-293zM442 297v633q0 27 -7 36t-32 9q-27 0 -36 -29v-665q10 -29 36 -29q25 0 32 9t7 36z" />
<glyph unicode="&#xff;" d="M739 1227v-1247q0 -152 -75.5 -222.5t-243.5 -70.5h-311v243h272q31 0 42 11.5t11 38.5v139q-45 -66 -166 -66q-119 0 -156.5 51.5t-37.5 198.5v924h293v-867q0 -27 7 -36t32 -9q27 0 38 29v883h295zM760 1618v-213h-293v213h293zM352 1618v-213h-291v213h291z" />
<glyph unicode="&#x152;" horiz-adv-x="1056" d="M975 285v-285h-539q-233 0 -301.5 59.5t-68.5 272.5v956q0 213 68.5 271.5t301.5 58.5h537v-272h-174v-119h166v-262h-166v-680h176zM475 287v1046h-39q-25 0 -32 -9t-7 -36v-956q0 -27 7.5 -36t31.5 -9h39z" />
<glyph unicode="&#x153;" horiz-adv-x="1118" d="M1055 518h-344v-260q2 -29 39 -29q25 0 31.5 9.5t6.5 35.5v144h267v-178q0 -168 -56.5 -214t-248.5 -46q-160 0 -187 59q-31 -59 -176 -59q-203 0 -262 46t-59 214v747q0 168 59 214t262 46q154 0 180 -57q27 57 183 57q193 0 249 -46t56 -214v-469zM350 930v-633 q0 -27 6 -36t31 -9t32 9t7 36v633q0 27 -7 36t-32 9t-31 -9t-6 -36zM750 991q-37 0 -39 -30v-218h77v203q0 27 -6.5 36t-31.5 9z" />
<glyph unicode="&#x178;" horiz-adv-x="790" d="M465 1618h321l-229 -1098v-520h-334v520l-219 1098h330l57 -660h8zM745 2009v-213h-292v213h292zM338 2009v-213h-291v213h291z" />
<glyph unicode="&#x2c6;" horiz-adv-x="696" d="M471 1649l203 -353h-201l-125 191l-127 -191h-201l203 353h248z" />
<glyph unicode="&#x2dc;" horiz-adv-x="829" d="M231 1456q-94 0 -145 -74v203q59 51 150 51q63 0 176.5 -32.5t179.5 -32.5q100 0 151 74v-199q-53 -59 -155 -60q-63 0 -177 35t-180 35z" />
<glyph unicode="&#x3bc;" d="M74 -313v1540h293v-930q0 -27 7 -36t32 -9q27 0 38 29v946h295v-1227h-272v55q-43 -59 -152 -65l29 -303h-270z" />
<glyph unicode="&#x2013;" horiz-adv-x="774" d="M739 811v-258h-704v258h704z" />
<glyph unicode="&#x2014;" horiz-adv-x="1288" d="M1253 811v-258h-1218v258h1218z" />
<glyph unicode="&#x2018;" horiz-adv-x="460" d="M82 1303v280q0 127 61.5 189.5t212.5 62.5h23v-131h-35q-90 0 -90 -105v-8h125v-288h-297z" />
<glyph unicode="&#x2019;" horiz-adv-x="460" d="M379 1784v-281q0 -127 -61.5 -190.5t-211.5 -63.5h-24v131h37q88 0 88 105v10h-125v289h297z" />
<glyph unicode="&#x201a;" horiz-adv-x="460" d="M379 289v-281q0 -127 -61.5 -190.5t-211.5 -63.5h-24v131h37q88 0 88 105v10h-125v289h297z" />
<glyph unicode="&#x201c;" horiz-adv-x="921" d="M82 1303v280q0 127 61.5 189.5t212.5 62.5h23v-131h-35q-90 0 -90 -105v-8h125v-288h-297zM543 1303v280q0 127 61.5 189.5t212.5 62.5h23v-131h-35q-90 0 -90 -105v-8h125v-288h-297z" />
<glyph unicode="&#x201d;" horiz-adv-x="921" d="M379 1784v-281q0 -127 -61.5 -190.5t-211.5 -63.5h-24v131h37q88 0 88 105v10h-125v289h297zM840 1784v-281q0 -127 -61.5 -190.5t-211.5 -63.5h-24v131h37q88 0 88 105v10h-125v289h297z" />
<glyph unicode="&#x201e;" horiz-adv-x="921" d="M379 289v-281q0 -127 -61.5 -190.5t-211.5 -63.5h-24v131h37q88 0 88 105v10h-125v289h297zM840 289v-281q0 -127 -61.5 -190.5t-211.5 -63.5h-24v131h37q88 0 88 105v10h-125v289h297z" />
<glyph unicode="&#x2022;" horiz-adv-x="749" d="M682 918v-70q0 -174 -57.5 -222t-249.5 -48q-188 0 -246.5 49t-58.5 221v70q0 172 57 219t248 47q195 0 251 -46t56 -220z" />
<glyph unicode="&#x2026;" horiz-adv-x="1902" d="M383 289v-289h-297v289h297zM1100 289v-289h-297v289h297zM1817 289v-289h-297v289h297z" />
<glyph unicode="&#x2039;" horiz-adv-x="493" d="M70 877l352 204v-202l-191 -125l191 -127v-201l-352 203v248z" />
<glyph unicode="&#x203a;" horiz-adv-x="493" d="M72 1081l352 -204v-248l-352 -203v201l190 127l-190 125v202z" />
<glyph unicode="&#x20ac;" horiz-adv-x="892" d="M39 565l20 164h56v158h-76l20 166h56v245q0 221 67.5 280.5t302.5 59.5q117 0 180.5 -10t107.5 -48t57.5 -102.5t13.5 -179.5v-98h-320v119q0 27 -7 35t-31.5 8t-32 -8t-7.5 -35v-266h353l-41 -166h-312v-158h275l-41 -164h-234v-264q0 -27 7.5 -36t32 -9t31.5 9t7 36 v121h320v-100q0 -117 -13.5 -181.5t-57.5 -102.5t-107.5 -48t-180.5 -10q-236 0 -303 60t-67 282v243h-76z" />
<glyph unicode="&#x2122;" horiz-adv-x="1298" d="M477 1618v-139h-102v-678h-215v678h-103v139h420zM1229 1618v-817h-168v502h-8l-66 -502h-180l-68 508h-8v-508h-168v817h289q29 -319 39 -444h8q12 174 43 444h287z" />
<glyph unicode="&#xe000;" horiz-adv-x="1225" d="M0 1225h1225v-1225h-1225v1225z" />
<glyph unicode="&#xfb01;" horiz-adv-x="991" d="M508 1227v-236h-121v-991h-293v991h-69v236h69v131q0 139 74 199.5t254 60.5h86v-217h-49q-72 0 -72 -68v-106h121zM905 1618v-213h-291v213h291zM905 1227v-1227h-291v1227h291z" />
<glyph unicode="&#xfb02;" horiz-adv-x="985" d="M508 1227v-236h-121v-991h-293v991h-69v236h69v131q0 139 74 199.5t254 60.5h86v-217h-49q-72 0 -72 -68v-106h121zM903 1618v-1618h-293v1618h293z" />
<glyph unicode="&#xfb03;" horiz-adv-x="1518" d="M1433 1618v-213h-291v213h291zM1433 1227v-1227h-291v1227h291zM1036 1227v-236h-121v-991h-293v991h-69v236h69v131q0 139 74 199.5t254 60.5h86v-217h-49q-72 0 -72 -68v-106h121zM508 1227v-236h-121v-991h-293v991h-69v236h69v131q0 139 74 199.5t254 60.5h86v-217 h-49q-72 0 -72 -68v-106h121z" />
<glyph unicode="&#xfb04;" horiz-adv-x="1512" d="M1431 1618v-1618h-293v1618h293zM1036 1227v-236h-121v-991h-293v991h-69v236h69v131q0 139 74 199.5t254 60.5h86v-217h-49q-72 0 -72 -68v-106h121zM508 1227v-236h-121v-991h-293v991h-69v236h69v131q0 139 74 199.5t254 60.5h86v-217h-49q-72 0 -72 -68v-106h121z " />
</font>
</defs>
</svg>
